<svg xmlns="http://www.w3.org/2000/svg" viewBox="0 0 1184 672" xml:space="preserve"><path fill="#404344" d="M485.692 392.453c-6.035-4.54-6.501-5.392-9.215-16.713-4.42 3.146-8.634 6.266-12.971 9.206-9.014 6.11-18.823 9.973-29.879 9.969-14.63-.006-22.85-8.31-22.919-23.033-.053-11.268 4.225-21.472 7.772-31.859a5961 5961 0 0 0 9.778-28.83c.458-1.365.668-2.813 1.206-5.152-4.173 0-7.754-.063-11.331.018-3.554.08-6.452-.638-6.46-4.982-.009-4.252 2.535-6.887 6.779-6.9 11.832-.039 23.665.032 35.498.059 2.333.005 4.667.028 7 0 4.143-.049 5.225 1.65 3.796 5.626-6.081 16.925-12.104 33.872-17.9 50.896-1.597 4.688-2.871 9.616-3.342 14.525-.648 6.75 3.078 10.775 9.799 10.112 4.62-.455 9.627-1.941 13.451-4.485 7.718-5.133 13.42-12.25 16.43-21.317 5.61-16.905 11.47-33.726 17.032-50.645 1.14-3.47 3.115-4.788 6.569-4.753 7.332.074 14.667-.064 21.998.038 4.566.064 5.268 1.25 3.742 5.546-7.577 21.338-15.176 42.667-22.701 64.023-1.545 4.384-3.801 9.302.604 12.998 4.317 3.622 9.548 1.879 13.55-.782 6.331-4.208 12.126-9.238 18.008-14.09.841-.694 1.287-2.342 1.265-3.536-.319-17.119 6.962-31.115 18.642-42.756 18.607-18.543 41.217-26.3 67.436-22.813 1.967.261 3.915.82 5.81 1.432 18.854 6.098 22.769 24.517 8.108 38.086-8.04 7.442-17.81 11.708-28.172 14.464-10.12 2.692-20.44 4.632-30.673 6.9-6.182 1.37-6.48 1.835-5.108 8.057 2.278 10.332 10.698 16.98 22.92 18.233 16.867 1.729 31.904-3.401 45.953-12.195 2.819-1.764 5.475-3.8 8.136-5.805 5.478-4.126 9.503-8.616 11.175-16.094 5.432-24.29 21.989-39.25 44.268-48.402 11.23-4.613 23.056-6.823 35.226-5.234 4.894.639 9.91 1.784 14.403 3.76 12.03 5.29 15.725 17.19 9.43 28.73-5.012 9.185-13.346 14.738-22.693 17.834-14.002 4.638-28.428 8.05-42.781 11.542-3.94.959-4.758 2.477-4.023 6.115 2.201 10.907 11.598 18.673 24.057 19.8 18.818 1.7 35.096-5.023 49.913-15.64 6.994-5.012 13.056-11.32 19.586-16.987 1.476-1.282 3.01-2.965 4.755-3.332 1.65-.347 4.311.245 5.243 1.432.926 1.179.386 3.628.206 5.492-.068.709-.872 1.387-1.426 2.002-19.879 22.089-43.724 37.42-73.48 42.106-12.585 1.98-25.281 1.712-37.619-2.102-11.56-3.574-20.436-10.308-24.791-22.06-.276-.745-.718-1.43-.883-1.751-9.466 5.518-18.497 11.49-28.128 16.247-19.475 9.623-40.122 13.05-61.693 9.283-13.24-2.312-23.993-8.66-31.129-20.717-6.23 4.259-11.902 8.61-18.013 12.215-13.035 7.693-26.76 11.93-42.214 6.219m107.813-51.304c9.745-3.116 18.392-7.874 23.875-16.907 4.183-6.892 4.067-15.156.097-18.498-4.186-3.525-13.993-2.831-19.449 2.123-10.443 9.484-15.532 22.005-19.765 36.583a1773 1773 0 0 0 15.242-3.301m118.887.836c4.21-1.51 8.644-2.58 12.583-4.615 9.648-4.983 16.618-12.229 16.99-23.854.203-6.327-3.152-9.516-9.378-9.725-7.053-.237-12.513 2.788-16.797 8.139-6.848 8.554-11.235 18.347-14.161 28.834-.237.85-.032 1.823-.032 3.419a1290 1290 0 0 0 10.795-2.198"/>
    <path fill="#404344"
          d="M360.253 412.46a5693 5693 0 0 1-3.808 11.742c11.156-2.969 21.307-6.007 31.616-8.35 29.724-6.755 59.84-9.412 90.306-7.895 44.826 2.232 89.04 9.553 133.374 15.913 30.535 4.38 61.126 8.127 92.086 5.55 24.173-2.011 47.33-7.624 68.498-19.906 4.154-2.41 7.948-5.456 11.83-8.315 2.24-1.65 4.535-3.489 7.017-.883 2.636 2.768.943 5.23-1.317 7.288-19.188 17.48-41.273 29.6-66.412 36.25-29.855 7.897-60.077 7.503-90.312 3.683-39.153-4.947-78.174-10.928-117.326-15.883-37.535-4.75-75.142-4.963-112.521 1.65-28.787 5.092-56.56 13.803-83.559 25.015-1.836.762-4.034.654-6.063.95.058-2.17-.421-4.526.258-6.48 7.155-20.595 14.498-41.124 21.779-61.675.652-1.84 1.235-3.703 2.323-6.98-2.82 1.458-4.5 2.21-6.064 3.153-13.221 7.968-27.317 10.249-42.248 6.226-13.272-3.577-21.655-14.022-22.763-27.834-.747-9.3.687-18.196 4.186-26.887 10.864-26.98 40.458-47.018 68.968-46.398 9.695.211 18.679 2.757 26.928 8.077 1.497.966 4.274.841 6.118.215 7.387-2.508 14.592-5.55 21.978-8.06 1.648-.56 3.757.238 5.654.41-.183 1.838-.01 3.8-.604 5.494-8.91 25.445-17.948 50.845-26.898 76.277-4.365 12.403-8.61 24.85-13.024 37.654m-13.555-106.112c-2.478.304-5.028.327-7.42.955-21.308 5.592-39.885 34.962-35.987 56.746 1.345 7.51 5.628 11.801 13.088 13.107 12.689 2.221 27.108-5.984 31.527-18.502 4.646-13.16 8.855-26.475 13.069-39.782 2.061-6.508.119-9.842-6.533-11.674-2.217-.61-4.6-.613-7.744-.85m581.808 9.155c19.43-18.447 41.963-26.552 68.36-22.463 12.008 1.86 19.832 8.344 21.336 17.368 1.543 9.26-2.282 16.632-9.003 22.608-10.565 9.394-23.725 13.228-37.011 16.553-7.42 1.858-14.954 3.33-22.503 4.574-3.827.631-4.431 2.448-3.865 5.812 1.828 10.862 10.636 18.46 23.229 19.951 17.456 2.068 33.1-3.245 47.208-12.768 8.486-5.728 15.878-13.078 23.747-19.716.632-.533 1.12-1.234 1.727-1.8 2.46-2.287 5.336-3.346 7.982-.798 2.654 2.555 1.681 5.426-.546 7.967-8.73 9.955-18.483 18.716-29.84 25.606-19.81 12.02-41.003 18.99-64.478 17.662-10.282-.582-20.553-2.102-28.734-8.594-5.945-4.718-10.529-11.15-16.204-17.348-1.09.961-3.289 2.855-5.437 4.803-11.312 10.259-23.881 18.693-39.305 20.298-11.345 1.181-22.926.202-34.4.028-16.48-.25-32.958-.574-49.431-1.061-2.065-.061-4.096-1.302-6.143-1.995 1.124-1.838 1.856-4.15 3.428-5.442 27.028-22.201 54.155-44.282 81.285-66.358.855-.696 1.97-1.073 2.476-2.47-13.604.14-27.086-3.056-39.659 2.536-5.14 2.285-9.538 6.421-13.933 10.12-2.193 1.846-4.103 3.852-6.89 2.029-2.978-1.95-1.073-4.35.062-6.555 4.723-9.174 9.505-18.32 14.092-27.562 1.49-3.004 3.278-4.364 6.885-4.346 30.155.148 60.312.035 90.468.131 1.757.006 3.51 1.142 5.264 1.753-1.036 1.663-1.763 3.668-3.158 4.936-10.844 9.85-21.905 19.462-32.727 29.337-13.409 12.235-26.663 24.64-39.954 37.005-1.878 1.747-3.586 3.677-5.917 6.084 1.733.43 2.48.771 3.233.78 10.656.13 21.321.53 31.967.231 14.804-.414 26.66-7.517 36.943-17.626.609-.6.956-1.703 1.008-2.595.882-15.273 7.949-27.595 18.438-38.675m22.402 27.945c4.942-1.407 10.036-2.428 14.793-4.303 9.608-3.787 17.385-9.8 20.63-20.144 3.28-10.457-2.194-16.734-12.941-15.175-5.65.82-9.955 3.908-13.028 8.381-3.65 5.313-7.055 10.86-9.908 16.631-2.216 4.484-3.422 9.467-5.274 14.795 2.35 0 3.631 0 5.728-.185M187.794 312.15c-4.586-3.637-9.15-6.776-13.127-10.538-16.737-15.834-15.766-39.706 1.856-54.718 11.141-9.49 24.334-13.523 38.493-15 13.06-1.362 25.913.255 38.638 3.32 6.745 1.624 13.454 2.187 19.927-1.487 1.077-.611 2.956.19 4.465.34-.159 1.526.257 3.543-.564 4.504-9.519 11.137-19.143 22.189-28.995 33.03-1.089 1.198-4.274 1.846-5.55 1.115-1.152-.66-1.745-3.735-1.335-5.444 2.431-10.13-1.036-17.429-10.892-20.916-9.66-3.419-19.35-3.329-28.559 1.665-9.82 5.325-13.164 18.889-5.54 26.943 6.888 7.277 15.314 13.174 23.415 19.206 7.327 5.456 15.635 9.666 22.628 15.485 19.436 16.173 20.705 39.134 3.682 57.901-12.539 13.823-28.515 21.72-46.407 25.859-23.345 5.399-46.607 5.303-69.39-2.857-4.637-1.66-9.02-4.286-13.173-6.998-24.192-15.795-17.064-47.93 3.022-58.916 7.382-4.038 15.146-5.998 23.468-5.416 1.41.098 3.298 1.56 3.84 2.861.34.82-1.125 3.24-2.275 3.697-10.784 4.285-15.181 12.451-14.73 23.599.471 11.67 5.627 20.874 15.664 26.84 14.09 8.377 29.454 8.822 45.056 5.882 9.41-1.774 18.278-4.955 25.485-11.788 11.261-10.677 11.868-25.85.734-36.685-4.735-4.608-10.37-8.325-15.77-12.206-4.46-3.206-9.173-6.059-14.066-9.279"/>
</svg>